<svg version="1.1" xmlns="http://www.w3.org/2000/svg" x="0" y="0" viewBox="0 0 100 100" xml:space="preserve">
	<path
		d="M61.521 7.748c-1.362-.496-2.711-.225-3.014.606L42.049 53.575l-.901 2.477-.794 2.182 5.984 2.178 2.128-5.847c3.741.943 6.14-1.565 6.978-3.869l11.171-30.692c1.891-5.196-.434-10.56-5.094-12.256z"
		fill="none"
		stroke="#111"
		stroke-width="3.5"
		stroke-miterlimit="10"
	/>
	<path
		d="M47.279 65.67c.662-1.824-.454-3.91-2.488-4.65l-4.216-1.534c-1.676-.61-3.511-.133-4.463 1.161-1.011 1.376-3.765 4.679-4.102 5.013-1.127 1.028-2.639 1.79-4.24 2.598-.521.262-1.047.528-1.569.805-4.307 2.289-7.401 5.896-8.711 10.157-1.043 3.392-.262 6.582 2.142 8.752a10.126 10.126 0 0 0 2.09 1.438c.997.561 2.033.919 2.711 1.153.207.075.451.174.786.311.441.181.952.39 1.511.594.87.317 1.664.547 2.396.695 1.972.452 3.772.449 5.35-.009 2.373-.688 4.081-2.327 4.938-4.741.73-2.051 7.136-19.729 7.865-21.743zM35.784 79.094c-.101.225-.197.437-.268.63-.334.907-.678 1.811-1.031 2.712-.067.171-.125.371-.187.582-.21.707-.47 1.586-1.112 2.168l-.001.001c-.35.316-.779.528-1.276.628-1.088.218-2.365-.178-3.392-.496l-.429-.131a17.96 17.96 0 0 1-1.076-.349c-.854-.311-1.67-.712-2.315-1.312-.919-.855-1.043-2.317-.331-3.913 1.106-2.482 2.921-4.436 5.248-5.649.599-.313 1.525-.737 2.636-.809 1.177-.078 2.361.282 3.165.96 1.885 1.591.899 3.794.369 4.978z"
		fill="#111"
		stroke="#111"
		stroke-width="3.5"
		stroke-miterlimit="10"
	/>
	<path
		d="M38.479 7.748c1.362-.496 2.711-.225 3.014.606l16.459 45.221.901 2.477.794 2.182-5.984 2.178-2.128-5.847c-3.741.943-6.14-1.565-6.978-3.869L33.385 20.003c-1.891-5.195.434-10.559 5.094-12.255z"
		fill="none"
		stroke="#111"
		stroke-width="3.5"
		stroke-miterlimit="10"
	/>
	<path
		d="M60.584 87.414c.857 2.413 2.565 4.053 4.938 4.741 1.578.458 3.378.461 5.35.009a16.93 16.93 0 0 0 2.396-.695c.559-.203 1.07-.413 1.511-.594.335-.137.579-.236.786-.311.678-.234 1.715-.592 2.711-1.153a10.126 10.126 0 0 0 2.09-1.438c2.404-2.17 3.185-5.361 2.142-8.752-1.31-4.261-4.403-7.867-8.711-10.157a70.668 70.668 0 0 0-1.569-.805c-1.601-.808-3.113-1.57-4.24-2.598-.337-.334-3.09-3.637-4.102-5.013-.952-1.294-2.787-1.771-4.463-1.161l-4.216 1.534c-2.034.74-3.15 2.827-2.488 4.65.731 2.013 7.137 19.691 7.865 21.743zm4-13.298c.805-.678 1.988-1.038 3.165-.96 1.111.072 2.037.496 2.636.809 2.327 1.213 4.142 3.167 5.248 5.649.711 1.595.588 3.058-.331 3.913-.645.6-1.461 1.002-2.315 1.312-.355.129-.717.243-1.076.349l-.429.131c-1.026.319-2.304.714-3.392.496a2.662 2.662 0 0 1-1.276-.628l-.001-.001c-.642-.582-.902-1.461-1.112-2.168-.062-.21-.12-.411-.187-.582-.353-.901-.697-1.805-1.031-2.712-.071-.193-.167-.405-.268-.63-.529-1.184-1.515-3.387.369-4.978z"
		fill="#111"
		stroke="#111"
		stroke-width="3.5"
		stroke-miterlimit="10"
	/>
</svg>