<svg xmlns="http://www.w3.org/2000/svg" xmlns:xlink="http://www.w3.org/1999/xlink" viewBox="0 0 32 32" xml:space="preserve"><path d="M24.6,11.5c-0.3-0.5-0.9-0.6-1.4-0.3c-0.5,0.3-0.6,0.9-0.3,1.4c0.7,1,1,2.2,1,3.4c0,3.3-2.7,6-6,6h-4c-3.3,0-6-2.7-6-6  s2.7-6,6-6h3v1.4c0,0.4,0.2,0.7,0.6,0.9c0.1,0.1,0.3,0.1,0.4,0.1c0.2,0,0.4-0.1,0.6-0.2l3-2.4C21.9,9.6,22,9.3,22,9  s-0.1-0.6-0.4-0.8l-3-2.4c-0.3-0.2-0.7-0.3-1.1-0.1C17.2,5.9,17,6.2,17,6.6V8h-3c-4.4,0-8,3.6-8,8s3.6,8,8,8h4c4.4,0,8-3.6,8-8  C26,14.4,25.5,12.8,24.6,11.5z"/></svg>